<svg width="128" height="128" viewBox="0 0 128 128" fill="none" xmlns="http://www.w3.org/2000/svg">
  <rect width="128" height="128" rx="32" fill="#09111C" />
  <rect x="12" y="12" width="104" height="104" rx="24" stroke="url(#frame)" stroke-width="2" />
  <circle cx="98" cy="30" r="8" fill="#F97316" />
  <path d="M35 54.5C35 43.455 42.611 36 53.094 36C59.96 36 65.215 38.89 68.11 43.675L60.024 49.724C58.235 47.146 55.597 45.78 52.815 45.78C47.765 45.78 44.715 49.022 44.715 54.5V73.5C44.715 78.978 47.765 82.22 52.815 82.22C55.597 82.22 58.235 80.854 60.024 78.276L68.11 84.325C65.215 89.11 59.96 92 53.094 92C42.611 92 35 84.545 35 73.5V54.5Z" fill="#F5F1E8" />
  <path d="M73 36H83.736C95.255 36 102 42.875 102 54.5V73.5C102 85.125 95.255 92 83.736 92H73V82.064H83.055C89.214 82.064 92.285 78.822 92.285 73.064V54.936C92.285 49.178 89.214 45.936 83.055 45.936H73V36Z" fill="#0F9DBD" />
  <defs>
    <linearGradient id="frame" x1="12" y1="12" x2="116" y2="116" gradientUnits="userSpaceOnUse">
      <stop stop-color="#0F9DBD" />
      <stop offset="1" stop-color="#F97316" />
    </linearGradient>
  </defs>
</svg>
