<svg width="1200" height="630" viewBox="0 0 1200 630" fill="none" xmlns="http://www.w3.org/2000/svg">
  <rect width="1200" height="630" fill="#F3F8FF" />
  <circle cx="165" cy="108" r="184" fill="#0F9DBD" fill-opacity="0.14" />
  <circle cx="1048" cy="124" r="152" fill="#F97316" fill-opacity="0.14" />
  <circle cx="892" cy="560" r="230" fill="#0F5EF7" fill-opacity="0.08" />
  <rect x="68" y="60" width="1064" height="510" rx="36" fill="white" fill-opacity="0.82" stroke="#D6E5FF" />
  <rect x="108" y="108" width="132" height="132" rx="36" fill="#09111C" />
  <rect x="120" y="120" width="108" height="108" rx="28" stroke="url(#frame)" stroke-width="2" />
  <circle cx="212" cy="138" r="8" fill="#F97316" />
  <path d="M157.5 145C150.32 145 145 150.203 145 157.742V182.258C145 189.797 150.32 195 157.5 195H176V183H159.51C156.062 183 153.5 180.445 153.5 176.922V163.078C153.5 159.555 156.062 157 159.51 157H176V145H157.5Z" fill="#F5F1E8" />
  <path d="M185 145H197V195H185V145Z" fill="#0F9DBD" />
  <text x="278" y="154" fill="#0B4CB8" font-family="'JetBrains Mono', monospace" font-size="18" letter-spacing="5">
    GABRIEL RODRIGO CAVEJON / PORTFOLIO
  </text>
  <text x="108" y="330" fill="#0D1B2E" font-family="'Sora', sans-serif" font-size="76" font-weight="700">
    Tecnologia com
  </text>
  <text x="108" y="412" fill="#0D1B2E" font-family="'Sora', sans-serif" font-size="76" font-weight="700">
    identidade propria,
  </text>
  <text x="108" y="494" fill="#0F5EF7" font-family="'Sora', sans-serif" font-size="76" font-weight="700">
    foco e clareza.
  </text>
  <text x="108" y="546" fill="#5A6B82" font-family="'Manrope', sans-serif" font-size="28">
    Gabriel Cavejon • Full-Stack Developer • gabrielcavejon.com.br
  </text>
  <defs>
    <linearGradient id="frame" x1="120" y1="120" x2="228" y2="228" gradientUnits="userSpaceOnUse">
      <stop stop-color="#0F9DBD" />
      <stop offset="1" stop-color="#F97316" />
    </linearGradient>
  </defs>
</svg>
